<svg width="72" height="72" viewBox="0 0 72 72" fill="none" xmlns="http://www.w3.org/2000/svg">
<path d="M25.5581 10.7296C25.7274 10.7064 26.0423 10.7121 26.4897 10.7687C27.1558 10.8505 28.0738 11.0611 28.978 11.383C30.8067 12.0316 32.5583 12.9138 34.1987 13.9484C36.194 15.2085 38.0548 16.7189 39.7036 18.422C40.8604 19.6175 41.9163 20.9062 42.8569 22.2814C42.9538 22.4231 43.0503 22.5662 43.145 22.7101C43.9539 23.8499 44.6671 25.0687 45.1108 25.9513C45.4801 26.6824 45.6938 27.2407 45.8677 27.7209C45.9869 28.0518 46.0874 28.3503 46.1958 28.6427C46.2542 28.8006 46.3345 29.0171 46.4263 29.2804C46.8083 30.3505 47.3402 32.2241 47.5347 33.9787C47.6276 34.7652 47.6749 35.6611 47.6753 36.5353C47.679 37.7677 47.5785 38.917 47.5571 39.4992C47.5251 40.5173 47.3604 41.691 47.1616 42.6896C46.9703 43.6664 46.7574 44.4792 46.6694 44.9679C46.562 45.5565 46.4194 46.0175 46.1753 46.7199C46.1333 46.8399 46.0855 46.9662 46.0366 47.1017C46.0384 47.1357 46.0417 47.1696 46.0435 47.2033L46.0024 47.1974C45.97 47.287 45.9367 47.3812 45.9009 47.4787L44.5698 47.3039C44.5654 47.2067 44.559 47.1087 44.5532 47.008L44.5044 47.0021C44.5187 46.9631 44.5315 46.9234 44.5454 46.8849C44.5313 46.6644 44.5145 46.4274 44.4858 46.1584C44.3846 45.2246 44.2814 44.5923 44.1577 44.0509C43.9787 43.3125 43.7945 42.7382 43.2808 42.1486C42.7044 41.49 41.902 41.2297 41.1753 41.175C40.8502 41.145 40.4632 41.1627 40.0444 41.2257C39.5101 41.3046 38.9196 41.4601 38.3931 41.6095C37.9538 41.7342 37.5863 41.8293 37.2554 41.921C37.1517 41.95 37.0484 41.9801 36.9517 42.0099C36.7638 42.0886 36.5712 42.1722 36.3745 42.2609C36.2299 42.3261 36.0707 42.3997 35.937 42.463C35.8869 42.4941 35.8333 42.5276 35.7778 42.5626C35.5021 42.7371 35.1355 42.9715 34.7124 43.2189C34.0024 43.6321 33.3912 43.9485 32.7319 44.3019C32.2274 44.5726 31.6831 44.8735 31.103 45.2404C30.6909 45.5008 30.256 45.7946 29.812 46.0998C29.1287 46.5684 28.5292 46.9954 28.0444 47.3009C27.8613 47.4164 27.7129 47.4847 27.5542 47.5607L27.5522 47.5617C27.5417 47.5667 27.5306 47.5713 27.52 47.5763C27.4404 47.6319 27.3604 47.6885 27.2808 47.7443C27.0004 48.0402 26.7312 48.3053 26.4868 48.5187C25.3792 49.5032 24.5316 50.0553 23.8296 50.4816C23.656 50.5925 23.4793 50.7013 23.3013 50.8068L22.3745 49.4142C22.8805 49.0589 23.3875 48.7053 23.895 48.3537C24.152 48.1461 24.4336 47.9129 24.7085 47.6623C25.188 47.2296 25.6544 46.7543 26.0112 46.3429C26.2197 46.1032 26.4404 45.8967 26.6636 45.6779C26.8716 45.4739 27.0824 45.2587 27.2798 44.9972C27.3785 44.8664 27.4779 44.7186 27.5815 44.5607C27.6728 44.4217 27.7678 44.2733 27.8687 44.1193C27.9621 43.9764 28.1923 43.6703 28.4683 43.2658C28.6389 43.0159 28.8278 42.7269 29.0161 42.4162C29.4772 41.5774 29.8877 40.7077 30.2495 39.8166C30.3086 39.6234 30.3485 39.4534 30.3677 39.3136C30.3814 39.2135 30.3849 39.1248 30.3882 39.0343C30.3926 38.9111 30.3974 38.7833 30.4243 38.6164C30.4454 38.486 30.488 38.3388 30.5327 38.2453C30.5536 38.2018 30.5751 38.1704 30.5942 38.1418C30.6161 38.1089 30.6355 38.0786 30.6489 38.0392C30.6585 38.0109 30.662 37.9792 30.6665 37.9406C30.6737 37.8783 30.6834 37.7972 30.7212 37.6818C30.862 37.2519 31.018 36.7591 31.1567 36.2736C31.3117 35.7331 31.4452 35.1973 31.5337 34.7677C31.6338 34.2866 31.7932 33.6024 31.9224 32.9093C32.0132 32.4265 32.09 31.9375 32.1411 31.5177C32.1914 31.1067 32.2166 30.6726 32.2319 30.255C32.2505 29.7546 32.2563 29.2714 32.2847 28.8615C32.2904 28.7785 32.3159 28.6746 32.3472 28.5451C32.3693 28.4533 32.3944 28.3472 32.4165 28.2267C32.4163 27.7003 32.4042 27.1756 32.3794 26.6525C32.3754 26.6342 32.3709 26.6148 32.3667 26.5959C32.2699 26.166 32.1407 25.5971 32.1069 24.7648C32.098 24.5541 32.1073 24.4185 32.1157 24.297C32.1239 24.1781 32.1309 24.0714 32.1138 23.9201C32.0939 23.7465 32.0489 23.5429 31.9976 23.3244C31.9252 23.0161 31.8404 22.681 31.7915 22.3283C31.7882 22.3043 31.7856 22.2779 31.7817 22.2511C31.7455 21.996 31.6859 21.6202 31.6392 21.2453C31.3803 20.1493 31.0571 19.0816 30.647 18.0353C29.9656 16.2999 29.0532 14.6427 27.8423 13.2296C27.2508 12.5364 26.6315 11.9276 26.1528 11.4914C25.8452 11.2105 25.6193 11.009 25.5073 10.882C25.4417 10.8453 25.4096 10.8162 25.4136 10.7902C25.4149 10.7823 25.4197 10.7755 25.4282 10.7687C25.4246 10.7665 25.4211 10.7641 25.4175 10.7619C25.4217 10.7626 25.4259 10.7631 25.4302 10.7638C25.4279 10.753 25.4279 10.7436 25.4321 10.7365C25.4447 10.7165 25.4877 10.7151 25.5581 10.7296Z" fill="#C4FF4D"/>
<path d="M27.5912 53.6177C28.3484 53.6474 28.859 53.704 29.2795 53.7561C31.2421 53.845 33.1953 54.0951 35.114 54.5134C35.5383 54.6061 35.9549 54.6966 36.3642 54.7852C37.0863 54.941 37.7854 55.09 38.5058 55.2385C39.1493 55.3712 39.8198 55.5075 40.4724 55.637C40.8657 55.6881 41.2246 55.7259 41.5717 55.7644C42.062 55.8191 42.473 55.8626 42.8322 55.9248C43.6725 56.0694 44.5998 56.3206 45.2975 56.5041C45.4101 56.5339 45.5158 56.5617 45.6132 56.5869C46.178 56.6812 46.7308 56.7688 47.2919 56.852C47.3265 56.8708 47.3614 56.8902 47.3967 56.9099C47.8384 57.1552 48.4242 57.2619 49.3398 57.4036C49.74 57.4649 50.1984 57.5312 50.7438 57.613C51.0938 57.6652 51.2642 57.7488 51.4074 57.8174C51.4492 57.8374 51.4883 57.8563 51.5283 57.8723C51.6656 57.9271 51.8198 57.8998 51.9999 57.8665C52.2335 57.8231 52.5137 57.7699 52.8679 57.8672C54.0037 58.1743 54.5249 58.0197 54.9062 57.9097C55.0183 57.8766 55.1197 57.8463 55.2233 57.8291C55.5608 57.774 56.0356 57.82 56.4033 57.8804C56.693 57.9299 57.2686 57.8384 57.6938 57.7258C57.8548 57.6837 58.0762 57.6634 58.3398 57.635C58.6073 57.6062 58.918 57.5694 59.2509 57.4922C60.0753 57.2975 60.5147 57.1748 60.8652 57.0791C60.9657 57.0513 61.0603 57.0255 61.1545 56.9985C61.4451 56.9148 61.8061 56.8175 62.1813 56.7107C62.6115 56.5875 63.0713 56.4476 63.3986 56.3262C64.2924 56.1374 65.2088 55.922 66.0917 55.6934C66.5609 55.5714 67.0271 55.5631 67.424 55.6699C67.8199 55.7773 68.1045 55.9933 68.2055 56.2852C68.3069 56.5767 68.2167 56.9242 67.9587 57.2527C67.6999 57.581 67.3029 57.8583 66.8286 58.0334C65.9057 58.3757 64.9341 58.7071 63.9758 58.99C62.793 59.3387 61.5909 59.6265 60.3664 59.8198C59.5129 59.9547 58.643 60.0525 57.7751 60.1084C57.6864 60.1141 57.5975 60.1195 57.507 60.1245C56.7807 60.2534 56.0497 60.3452 55.5331 60.3743C55.1046 60.3986 54.7961 60.3535 54.5297 60.3135C54.3473 60.2858 54.1867 60.2603 54.0236 60.2578C53.9359 60.2565 53.816 60.2566 53.6713 60.2556C53.0813 60.2536 52.0763 60.2211 51.184 60.0447C50.7876 59.9675 50.3335 59.8452 49.9045 59.7224C49.2906 59.5473 48.7271 59.372 48.4301 59.3481C47.9118 59.3071 47.3269 59.164 46.8254 59.0354C46.3386 58.9114 45.9207 58.8005 45.6674 58.8025C45.3634 58.8045 45.1222 58.7298 44.7651 58.6186C44.5166 58.5413 44.2062 58.4449 43.791 58.3447C43.3046 58.2276 42.9698 58.1122 42.6865 58.0144C42.2836 57.8759 41.9828 57.7726 41.5087 57.7441C40.9718 57.7103 40.4411 57.6483 40.0182 57.5332C39.8234 57.4803 39.6109 57.4384 39.3825 57.3933C39.0831 57.3343 38.7533 57.2693 38.4743 57.1824C38.2434 57.1105 38.0584 57.0111 37.8935 56.9231C37.8421 56.8957 37.7924 56.8695 37.7441 56.8455C37.5513 56.8068 37.358 56.7686 37.1713 56.7327C37.1389 56.736 37.1045 56.7396 37.0688 56.7436C36.8895 56.7639 36.6682 56.7887 36.4008 56.77C35.9689 56.7387 35.6356 56.6397 35.2582 56.5305C35.0979 56.484 34.9327 56.4359 34.7558 56.3928C34.6179 56.3589 34.4729 56.3292 34.3178 56.3071C34.0822 56.2735 33.8127 56.2552 33.5436 56.2412C33.1437 56.2201 32.7518 56.2104 32.4824 56.1599C32.3814 56.1409 32.297 56.0948 32.2136 56.0493L32.2128 56.0486C32.2072 56.0455 32.2016 56.0421 32.196 56.0391C31.5303 56.0055 30.8619 55.9981 30.195 56.0142C30.137 56.0223 30.0779 56.0308 30.02 56.0391C29.7366 56.0791 29.4643 56.1224 29.2853 56.1863C29.0914 56.2552 28.6095 56.2999 28.1003 56.3628C27.7666 56.4035 27.4259 56.4512 27.1459 56.5085C26.9829 56.542 26.824 56.5147 26.6603 56.488C26.5075 56.4632 26.3514 56.439 26.1828 56.4646C26.0988 56.4774 26.0092 56.502 25.914 56.529C25.83 56.5529 25.7414 56.5784 25.6481 56.5986C25.561 56.6174 25.3655 56.6178 25.1098 56.6228C24.9525 56.6258 24.774 56.6307 24.5876 56.6411C24.1047 56.7327 23.6181 56.8334 23.1374 56.9407C23.0418 56.9922 22.962 57.0517 22.903 57.1201C22.8606 57.1693 22.8273 57.225 22.7932 57.282C22.7467 57.3595 22.6989 57.4398 22.6262 57.5105C22.5693 57.5657 22.4957 57.5972 22.4409 57.5896C22.4154 57.586 22.3939 57.5746 22.3742 57.564C22.3517 57.5517 22.3315 57.5403 22.3105 57.5449C22.2954 57.5484 22.2816 57.5631 22.2651 57.5808C22.2386 57.6091 22.2043 57.6456 22.1435 57.6592C21.9164 57.7097 21.6578 57.7561 21.4045 57.8035C21.12 57.8567 20.844 57.9116 20.6296 57.9727C20.3899 58.0408 20.0275 58.0867 19.6723 58.1367C19.4242 58.1716 19.1701 58.211 18.9604 58.2576C18.7545 58.3032 18.5496 58.387 18.3503 58.4707C18.1114 58.571 17.8889 58.6678 17.6765 58.6948C17.6334 58.7003 17.5686 58.6713 17.4875 58.6355C17.4301 58.6101 17.3639 58.5815 17.2919 58.5586C17.0366 58.6406 16.7846 58.7217 16.5266 58.8054C16.5197 58.8144 16.5124 58.8239 16.5053 58.8332V58.834C16.3432 59.0468 16.1332 59.334 15.6923 59.3635C15.5812 59.3707 15.4987 59.3405 15.4243 59.313C15.3511 59.2859 15.2855 59.2614 15.2097 59.2793C15.1225 59.3001 15.0326 59.3669 14.9372 59.439C14.8027 59.5403 14.655 59.6535 14.4721 59.6719C14.4596 59.6731 14.4464 59.6746 14.4318 59.6763C14.2953 59.6918 14.0943 59.7148 13.8774 59.6894C13.3386 59.8759 12.792 60.071 12.258 60.2681C11.3591 60.6006 10.4696 60.9489 9.58612 61.3315C9.16635 61.5119 8.70252 61.6033 8.30511 61.5674C7.90452 61.5327 7.59801 61.3755 7.44452 61.114C7.28776 60.8553 7.2995 60.5065 7.49286 60.1348C7.68222 59.7654 8.04012 59.4074 8.45453 59.1548C9.14344 58.7363 9.84 58.3392 10.5507 57.9602C10.5859 57.9372 10.6218 57.9139 10.6577 57.8914C10.927 57.7226 11.1562 57.528 11.3893 57.334C11.4431 57.2894 11.4975 57.2443 11.5527 57.1999C11.9608 56.8649 12.9037 56.545 13.4211 56.3833C13.4305 56.3803 13.4402 56.3776 13.4496 56.3745C13.5719 56.3359 13.6863 56.2941 13.8217 56.2456C14.1445 56.1311 14.5809 55.9722 15.5129 55.7527C15.7793 55.6589 16.0394 55.5715 16.3054 55.4861C19.1761 54.5653 22.1683 54.0009 25.1889 53.8C25.2266 53.795 25.2651 53.7898 25.3039 53.7847C26.0561 53.6836 26.9976 53.5929 27.5912 53.6177ZM25.446 8.30493C25.7463 8.23391 26.0667 8.29185 26.3417 8.46899C26.6165 8.64606 26.8218 8.929 26.9152 9.25049C27.1027 9.89687 27.279 10.5484 27.4345 11.2031C27.6241 12.0015 27.783 12.8068 27.8945 13.6187C27.9724 14.186 28.036 14.7558 28.0864 15.3259C28.0915 15.3845 28.0961 15.4431 28.101 15.5017C28.2289 15.971 28.3441 16.4427 28.3991 16.7776C28.4446 17.0539 28.4216 17.2604 28.4013 17.4368C28.3873 17.5581 28.3744 17.6656 28.3859 17.7722C28.3922 17.8295 28.4033 17.908 28.416 18.0022C28.468 18.3869 28.5509 19.0419 28.5082 19.645C28.4895 19.9128 28.4398 20.225 28.3903 20.5217C28.3198 20.9456 28.25 21.3399 28.2812 21.5369C28.3363 21.8831 28.3079 22.2818 28.2805 22.6348C28.2544 22.9712 28.2292 23.2646 28.2819 23.4309C28.3449 23.6297 28.3209 23.7993 28.2841 24.0527C28.2586 24.2282 28.2275 24.4437 28.2131 24.7353C28.1963 25.0722 28.1501 25.309 28.1105 25.5117C28.0547 25.7964 28.0115 26.0099 28.0754 26.3306C28.1463 26.6858 28.1858 27.0604 28.1508 27.3516C28.1349 27.4843 28.132 27.6365 28.1288 27.7947C28.1246 28.0039 28.1195 28.2246 28.082 28.4253C28.0511 28.5902 27.9849 28.7244 27.926 28.8428C27.9076 28.8797 27.8896 28.9153 27.874 28.9497C27.8681 29.0814 27.8625 29.213 27.8571 29.3445C27.8656 29.3663 27.8752 29.3894 27.8849 29.4133C27.9338 29.5328 27.9929 29.6826 28.0161 29.8638C28.0526 30.1508 28.0038 30.3974 27.9509 30.6562C27.9097 30.8573 27.866 31.0687 27.8586 31.3132C27.8535 31.4799 27.8636 31.6709 27.8732 31.8596C27.8875 32.1394 27.9003 32.416 27.8615 32.606C27.847 32.6768 27.8044 32.7353 27.7619 32.7927L27.7612 32.7935C27.7583 32.7973 27.7552 32.8014 27.7524 32.8052C27.7405 33.2722 27.729 33.7362 27.7158 34.2056C27.7214 34.2468 27.7266 34.2889 27.7319 34.3301C27.7577 34.5312 27.7824 34.7261 27.8322 34.8567C27.8865 34.9966 27.8894 35.3448 27.8908 35.707C27.8918 35.9447 27.8925 36.1899 27.9069 36.3911C27.9151 36.5102 27.8629 36.616 27.8095 36.7244C27.7597 36.8255 27.7086 36.929 27.7033 37.0481C27.7007 37.1078 27.7088 37.1735 27.7172 37.2437C27.7247 37.3053 27.7328 37.3705 27.7341 37.4377C27.7352 37.5009 27.6969 37.6325 27.6469 37.8076C27.6161 37.915 27.5808 38.0371 27.548 38.165C27.5258 38.513 27.5023 38.8513 27.4741 39.2014C27.4975 39.2781 27.5328 39.3469 27.5817 39.4043C27.6168 39.4453 27.6603 39.4821 27.7048 39.52C27.7655 39.5718 27.8284 39.6257 27.8747 39.6936C27.9109 39.7468 27.92 39.805 27.8967 39.8394C27.8858 39.8552 27.8679 39.8661 27.852 39.876C27.8338 39.8873 27.8179 39.8976 27.8161 39.9126C27.815 39.9234 27.8248 39.9364 27.8366 39.9521C27.8556 39.9774 27.88 40.0104 27.8747 40.054C27.8544 40.2162 27.8167 40.401 27.7795 40.5828C27.7382 40.7843 27.6976 40.98 27.6813 41.1379C27.6631 41.3152 27.5804 41.5557 27.496 41.803C27.4375 41.9741 27.3788 42.1447 27.3415 42.2922C27.305 42.4369 27.3028 42.5923 27.3005 42.7434C27.2971 42.9281 27.2938 43.1053 27.2309 43.2444C27.2181 43.2725 27.165 43.3012 27.0991 43.3367C27.0524 43.3618 26.9988 43.3907 26.9482 43.4253C26.9152 43.6103 26.8812 43.7892 26.8434 43.9761C26.8485 43.9838 26.8536 43.9923 26.8588 44.0002H26.8596C26.9784 44.18 27.1402 44.4272 26.9658 44.6953C26.9214 44.7633 26.8565 44.7988 26.798 44.8308C26.7406 44.8623 26.6894 44.8907 26.6699 44.9421C26.6479 44.9999 26.6645 45.0795 26.6823 45.1655C26.7073 45.2863 26.7345 45.4214 26.6618 45.5361C26.6569 45.5439 26.6518 45.5524 26.6464 45.561C26.5944 45.6443 26.5171 45.7668 26.3886 45.8774C26.2845 46.2578 26.1699 46.655 26.0546 47.0317C25.9921 47.2379 25.9261 47.4426 25.8613 47.647C27.4498 47.8554 29.0582 47.976 30.6813 48.0081C30.7284 48.0064 30.7771 48.0048 30.8256 48.0029C31.7265 47.9706 32.8987 47.8825 33.5993 47.8748C34.5181 47.8649 35.1523 47.8524 35.6603 47.844C38.5946 47.5947 41.5254 47.0834 44.4062 46.3323C45.2927 46.1017 46.2293 45.8308 47.0927 45.5574C47.9 45.3023 48.7548 45.011 49.5361 44.7275C49.9934 44.5337 50.4303 44.3365 50.8383 44.1489C51.4232 43.8811 51.8989 43.6525 52.3185 43.4744C53.3239 43.0483 54.5185 42.6155 55.3698 42.2952C55.5112 42.242 55.6457 42.1912 55.7697 42.1436C56.4388 41.8338 57.1265 41.5053 57.7678 41.1899C57.817 41.1808 57.8672 41.1725 57.9179 41.1636C58.5472 41.0529 59.2675 40.7192 60.3657 40.1865C60.8339 39.9591 61.3803 39.6902 62.0378 39.3743C62.4615 39.1704 62.7083 39.1159 62.9101 39.0718C62.9695 39.0587 63.0256 39.0467 63.0808 39.0315C63.146 39.0135 63.208 38.9862 63.269 38.9517C63.8519 38.6153 64.7301 39.1795 64.5031 39.9741C64.4892 40.0636 64.4794 40.1593 64.4687 40.2612C64.4348 40.5825 64.3894 40.9692 64.1479 41.417C63.3727 42.8285 63.1946 43.4996 63.069 44.0354C63.031 44.1905 62.9955 44.3309 62.9453 44.4675C62.7821 44.9133 62.4144 45.4764 62.0949 45.876C61.8453 46.1917 61.4838 46.9038 61.2116 47.4543C61.1098 47.6623 60.939 47.9194 60.7304 48.2219C60.5167 48.532 60.2613 48.8914 60.0082 49.2832C59.3604 50.2796 58.984 50.7807 58.6782 51.1919C58.5913 51.3077 58.5109 51.4131 58.4291 51.52C58.1675 51.8618 57.8316 52.2692 57.4821 52.6721C57.0599 53.1596 56.6203 53.6373 56.2875 54.0073C55.33 54.8739 54.3298 55.6842 53.2458 56.4294C52.6881 56.8115 52.0528 57.067 51.488 57.1128C50.9409 57.1636 50.4176 56.9752 50.4113 56.6514C50.3905 56.3443 50.4579 56.0337 50.6926 55.6436C50.9289 55.2567 51.3202 54.8328 51.7875 54.4563C52.7313 53.6953 53.628 52.8458 54.4894 51.9573C55.5295 50.8816 56.515 49.7439 57.4477 48.5684C58.0985 47.7476 58.7167 46.9024 59.2956 46.0327C59.3552 45.9432 59.4155 45.8515 59.4736 45.7625C59.8794 44.9812 60.2466 44.1886 60.5078 43.6362C60.7241 43.18 60.9203 42.8688 61.0864 42.5984C61.1999 42.4133 61.2991 42.2473 61.3749 42.0681C61.3805 42.055 61.3851 42.0408 61.3911 42.0264C61.0453 42.1568 60.7567 42.2743 60.5656 42.3801C59.9675 42.7139 59.2509 43.0051 58.6262 43.2517C58.0374 43.4841 57.4973 43.6929 57.2177 43.8713C56.8846 44.0841 56.5697 44.1926 56.1074 44.3489C55.7855 44.4575 55.3998 44.5862 54.8762 44.7876C54.2525 45.0276 53.8051 45.1585 53.4267 45.2681C52.8923 45.4223 52.5065 45.5302 51.9516 45.8145C51.3201 46.1357 50.6568 46.428 50.1191 46.5894C49.8725 46.6635 49.6054 46.7588 49.3127 46.8611C48.9191 46.9987 48.5084 47.1385 48.1269 47.2317C47.8124 47.3085 47.542 47.3311 47.3044 47.3496C47.2303 47.3554 47.1594 47.3607 47.0912 47.3672C46.8525 47.4417 46.6077 47.5173 46.3559 47.5942C46.3183 47.6155 46.2791 47.6387 46.238 47.6624C46.0311 47.7813 45.7768 47.9263 45.4506 48.0542C44.9298 48.2576 44.4792 48.3455 43.9609 48.4446C43.5612 48.5205 43.1494 48.5951 42.6931 48.7163C42.3798 48.7994 42.0408 48.9042 41.6852 49.0093C41.1509 49.167 40.6299 49.3127 40.2621 49.3638C40.1244 49.3829 40.0004 49.3692 39.8784 49.355L39.8769 49.3542C39.8686 49.3533 39.8603 49.3523 39.852 49.3513C38.975 49.552 38.0564 49.7423 37.1823 49.905C37.1039 49.9264 37.0248 49.948 36.9465 49.9687C36.5632 50.0703 36.1942 50.1635 35.9592 50.2566C35.7023 50.3579 35.0572 50.4759 34.3398 50.5847C33.8769 50.6558 33.4055 50.7211 33.0244 50.7847C32.7912 50.8226 32.5672 50.7972 32.3395 50.7693C32.1271 50.7432 31.9111 50.7148 31.6789 50.7334C31.5625 50.7427 31.4375 50.7633 31.3046 50.7847C31.1864 50.8035 31.0691 50.8229 30.9318 50.8359C30.8066 50.8479 30.5267 50.8333 30.1745 50.8088C29.9569 50.7938 29.7115 50.7746 29.4567 50.7568C28.7857 50.7752 28.0733 50.7755 27.4052 50.759C27.2654 50.7852 27.1334 50.8211 27.0302 50.8711C26.9558 50.907 26.8913 50.9519 26.8251 50.9971C26.7353 51.0584 26.6421 51.1216 26.5168 51.1677C26.4187 51.2038 26.3057 51.2117 26.2326 51.1875C26.1986 51.1762 26.1728 51.1585 26.1498 51.1421C26.1236 51.1233 26.1001 51.1062 26.07 51.104C26.0484 51.1025 26.0249 51.1123 25.996 51.1238C25.9498 51.1422 25.8893 51.1662 25.8019 51.1589C25.483 51.1328 25.097 51.0822 24.7326 51.0286C24.3243 50.9687 23.9422 50.9053 23.6223 50.866C23.2608 50.8217 22.7612 50.6968 22.2768 50.562C21.9365 50.4679 21.5825 50.3652 21.2895 50.2895C20.9977 50.2145 20.7041 50.1726 20.3959 50.1226C20.0319 50.0639 19.6869 50.0026 19.4138 49.8896C19.3586 49.8668 19.2996 49.8021 19.227 49.7212C19.1765 49.6642 19.1146 49.5974 19.0424 49.5315C18.676 49.4279 18.317 49.3188 17.9658 49.2041C17.9514 49.2062 17.9366 49.2077 17.9218 49.21L17.9211 49.2107C17.5878 49.2614 17.1021 49.3179 16.5895 49.0056C16.4596 48.9263 16.3916 48.841 16.3266 48.7625C16.2639 48.6855 16.2078 48.6161 16.1076 48.5684C15.9939 48.5143 15.8453 48.4908 15.6843 48.4644C15.4559 48.4264 15.2142 48.3869 14.9907 48.2417C14.9758 48.232 14.9596 48.2218 14.9431 48.2109C14.785 48.1078 14.5537 47.9542 14.352 47.7524C13.6337 47.4094 12.9313 47.0411 12.2397 46.6501C11.089 46 9.98358 45.2923 8.9101 44.5627C8.39325 44.211 7.95249 43.7689 7.7016 43.3447C7.44218 42.9146 7.39861 42.5422 7.55731 42.2842C7.71764 42.0272 8.07254 41.9028 8.57245 41.9458C9.06374 41.9835 9.64652 42.1792 10.1808 42.4636C11.0579 42.9322 11.9496 43.3848 12.83 43.7959C12.8784 43.8145 12.9274 43.8333 12.9758 43.8523C13.3447 43.9984 13.6801 44.0737 14.0392 44.1555C14.121 44.1739 14.2036 44.1917 14.2861 44.2104C14.8931 44.348 15.9433 44.8814 16.5419 45.1523C16.5525 45.1571 16.5629 45.1622 16.5734 45.167C16.7111 45.2305 16.8446 45.2853 17.0026 45.3486C17.3862 45.4993 17.8833 45.7048 18.9567 46.144C19.2721 46.2399 19.5932 46.3337 19.9199 46.426C20.9954 46.7307 22.0844 46.9913 23.1843 47.2083C23.1978 47.0901 23.2117 46.9719 23.2253 46.8538C23.2248 46.8258 23.2245 46.7975 23.2245 46.7695C23.2258 46.559 23.1795 46.3652 23.1337 46.1653C23.1232 46.1196 23.1123 46.0735 23.1022 46.0276C23.027 45.6754 23.2085 45.0736 23.3066 44.7378C23.3083 44.7317 23.31 44.7256 23.3117 44.7195C23.3351 44.6397 23.3522 44.5628 23.3718 44.4727C23.4182 44.2578 23.4788 43.9795 23.6816 43.3857C23.7108 43.207 23.7403 43.0359 23.7717 42.8599C24.1096 40.9625 24.5228 39.0685 24.912 37.1733C24.9144 37.1492 24.917 37.1242 24.9194 37.0994C24.9658 36.6205 25.02 36.0145 25.1149 35.6499C25.2363 35.1827 25.3337 34.8595 25.4152 34.6011C25.692 33.0827 25.9246 31.5613 26.0627 30.0271C26.106 29.5451 26.1402 29.0648 26.163 28.5828C26.1841 28.1379 26.197 27.6953 26.2033 27.2512C26.1804 26.992 26.1502 26.7434 26.1213 26.5159C26.0807 26.1957 26.0436 25.9103 26.0334 25.675C26.0092 25.1068 26.0671 24.4689 26.1059 23.9905C26.1123 23.9125 26.1184 23.8386 26.1235 23.7707C26.102 23.3928 26.0764 23.0144 26.048 22.6362C26.0596 22.6109 26.0716 22.5853 26.0839 22.5593C26.2386 22.2332 26.2286 21.8353 26.204 21.2095C26.1932 20.9368 26.1798 20.6219 26.174 20.25C26.1702 20.0107 26.2269 19.8845 26.2736 19.7812C26.2873 19.7509 26.3002 19.7221 26.3102 19.6934C26.3446 19.5948 26.2959 19.4959 26.2385 19.3791C26.1639 19.2276 26.0745 19.0465 26.1293 18.7961C26.3032 17.9967 26.119 17.6612 25.9814 17.4111C25.9409 17.3377 25.9036 17.2709 25.8803 17.2017C25.805 16.9771 25.8299 16.6461 25.8803 16.3916C25.9206 16.1897 25.8206 15.8033 25.7119 15.5156C25.6708 15.4069 25.6525 15.2551 25.6306 15.0769C25.6078 14.8926 25.5805 14.6794 25.5192 14.4558C25.3641 13.8913 25.2807 13.592 25.2138 13.352C25.1946 13.2836 25.1763 13.22 25.1581 13.1565C25.1007 12.9557 25.0397 12.7058 24.9758 12.4526C24.8994 12.15 24.8191 11.844 24.7414 11.6147C24.6703 10.997 24.5979 10.3776 24.5151 9.76025C24.4728 9.44272 24.5418 9.11412 24.7136 8.84179C24.8856 8.56985 25.1456 8.37603 25.446 8.30493Z" fill="white"/>
</svg>
