<svg width="24" height="24" viewBox="0 0 24 24" fill="none" xmlns="http://www.w3.org/2000/svg">
<circle cx="12" cy="12" r="12" fill="white"/>
<path d="M9.13924 15.1471C12.3225 12.3869 11.9142 6.40008 9.04853 4.77275C12.0235 5.1857 16.8947 8.96131 15.0322 14.8776C14.8064 12.4422 13.645 11.8356 9.13924 15.1471C8.94295 15.3173 8.73301 15.4753 8.50914 15.6192C8.72612 15.4537 8.93608 15.2965 9.13924 15.1471Z" fill="#A1F200"/>
<path d="M11.2578 6.85155C11.4163 7.10426 11.5925 7.6411 11.6583 7.94276C11.6596 7.94825 11.6609 7.95374 11.6622 7.95924C11.6789 8.03042 11.6952 8.09784 11.7132 8.17741C11.7535 8.36562 11.8162 8.62213 11.8498 9.16523C11.8675 9.32193 11.8804 9.48105 11.8884 9.63843C11.9726 11.3407 11.5271 13.1123 10.4662 14.5213C10.4537 14.5396 10.4408 14.5581 10.4277 14.5767C10.1777 14.9399 9.80613 15.3513 9.53076 15.5644C9.22758 15.8035 8.98903 15.9446 8.78832 16.0535L8.19608 15.2086C8.22181 15.1921 8.24669 15.1763 8.27086 15.161C9.32258 14.4106 10.3871 13.6842 11.5719 13.0754C11.8079 12.9562 12.0672 12.8355 12.3203 12.7362C12.4652 12.6793 12.6 12.6314 12.7501 12.5861C13.1347 12.4745 13.5707 12.3787 14.0583 12.4921C14.3427 12.5472 14.6159 12.6973 14.8054 12.8795C15.0751 13.1374 15.2079 13.4145 15.2911 13.6292C15.4429 14.0346 15.4894 14.4677 15.5082 14.8334L14.5762 14.734C14.6115 14.638 14.6435 14.5473 14.6718 14.4637C14.6916 14.4052 14.7096 14.3502 14.7256 14.2995C14.7966 14.0061 14.8513 13.7161 14.8907 13.4182C14.8987 13.3994 14.9067 13.3804 14.9149 13.3611C15.0152 13.121 15.0575 12.8026 15.0641 12.3101C15.066 12.0928 15.0599 11.847 15.0365 11.5519C15.0213 11.3648 15.0302 11.264 15.0377 11.1816C15.0398 11.1574 15.0416 11.1347 15.0423 11.1119C15.0445 11.0334 15.0152 10.9582 14.9784 10.8675C14.9304 10.7497 14.8727 10.6152 14.8469 10.4189C14.7574 9.79421 14.5791 9.55611 14.4639 9.38438C14.4287 9.33414 14.396 9.28798 14.3667 9.23954C14.2726 9.08237 14.1682 8.8431 14.0881 8.65997C14.0258 8.51332 13.8398 8.25737 13.6806 8.07811C13.6211 8.01045 13.5484 7.91212 13.4591 7.79916C13.3673 7.68283 13.2561 7.54924 13.1267 7.41848C12.797 7.08772 12.6061 6.92991 12.454 6.80143C12.4102 6.76498 12.3692 6.73149 12.3281 6.69853C12.1991 6.59503 12.0347 6.4662 11.8648 6.34387C11.6615 6.19669 11.4475 6.0575 11.2805 5.96054C10.8625 5.68143 10.417 5.43756 9.95001 5.24964C9.71098 5.15286 9.47784 5.05679 9.30904 4.97839C9.13416 4.89829 9.03971 4.83889 9.04615 4.78985C9.05289 4.74184 9.162 4.70593 9.36499 4.70313C9.56076 4.69908 9.83148 4.73337 10.0979 4.80924C10.6357 4.96199 11.1563 5.17806 11.6514 5.44184C12.2523 5.76234 12.8209 6.15782 13.3304 6.62064C13.6873 6.94503 14.0162 7.30028 14.3113 7.68529C14.3417 7.72491 14.3718 7.76492 14.4015 7.80529C14.6662 8.11614 14.9047 8.45478 15.0524 8.7048C15.1751 8.91156 15.2399 9.07545 15.2921 9.21587C15.3279 9.31268 15.3582 9.40012 15.3946 9.48394C15.4142 9.52925 15.4414 9.59116 15.4729 9.66684C15.6034 9.97374 15.7915 10.5171 15.8547 11.0332C15.8849 11.2644 15.8962 11.5279 15.8931 11.7846C15.8894 12.1461 15.8541 12.4809 15.8583 12.6508C15.8674 12.9482 15.8222 13.2914 15.7664 13.5815C15.7128 13.866 15.6523 14.1021 15.6416 14.2469C15.6281 14.4212 15.5852 14.5557 15.5133 14.7584C15.4879 14.8295 15.4587 14.9089 15.4248 15.0012L14.6223 14.9156C14.6185 14.8266 14.6126 14.7351 14.5992 14.6232C14.5684 14.3699 14.5455 14.1954 14.519 14.0513C14.4805 13.8524 14.4375 13.698 14.3013 13.5521C14.1473 13.392 13.9927 13.3307 13.8393 13.2861C13.7703 13.2657 13.6822 13.2575 13.5796 13.2615C13.4511 13.2659 13.2952 13.2927 13.1573 13.3142C13.0349 13.334 12.9388 13.3376 12.8397 13.3472C12.8101 13.3498 12.7837 13.352 12.7567 13.3554C12.7034 13.3748 12.6487 13.3958 12.5925 13.4186C12.5534 13.4344 12.5144 13.4508 12.4744 13.4681C12.4608 13.4783 12.4465 13.4894 12.4315 13.501C12.3525 13.561 12.2703 13.6298 12.1476 13.7057C11.9618 13.8221 11.7811 13.9029 11.594 13.9911C11.4413 14.0639 11.2991 14.1332 11.1301 14.2415C11.0229 14.3105 10.896 14.4021 10.7756 14.4916C10.6014 14.6212 10.4187 14.7608 10.2906 14.8361C10.2413 14.8652 10.1912 14.8803 10.1412 14.8956C10.141 14.8957 10.1408 14.8957 10.1405 14.8958C10.1371 14.8968 10.1337 14.8979 10.1304 14.8989C9.82871 15.1202 9.53391 15.3461 9.23331 15.5827C9.20783 15.6062 9.18579 15.6272 9.162 15.6494C9.04752 15.7565 8.93315 15.8639 8.86602 15.946C8.85159 15.9636 8.83148 15.9849 8.80662 16.0093L8.24387 15.2065C8.34088 15.1236 8.50087 15.0009 8.6602 14.8581C8.78953 14.7428 8.91659 14.6158 9.01127 14.5043C9.06651 14.4395 9.13456 14.3929 9.20388 14.3427C9.26846 14.2959 9.33408 14.2459 9.3891 14.1767C9.4167 14.142 9.44281 14.1015 9.46999 14.058C9.49391 14.0197 9.51871 13.9789 9.54621 13.9375C9.57174 13.8991 9.64112 13.8228 9.72581 13.7201C9.77816 13.6566 9.83629 13.5831 9.89394 13.5031C10.0255 13.2789 10.1433 13.046 10.248 12.8067C10.26 12.7524 10.2649 12.7031 10.2613 12.6611C10.2587 12.631 10.2517 12.6036 10.2444 12.5755C10.2345 12.5373 10.2242 12.4981 10.223 12.4498C10.2221 12.4121 10.232 12.3721 10.2485 12.3488C10.2562 12.338 10.2652 12.3308 10.2734 12.3242C10.2828 12.3167 10.2911 12.3099 10.2951 12.2994C10.298 12.2919 10.2972 12.2826 10.2962 12.2713C10.2947 12.2531 10.2928 12.2297 10.3041 12.1991C10.3463 12.085 10.3956 11.9554 10.44 11.8264C10.4896 11.683 10.533 11.5404 10.5596 11.4249C10.5897 11.2955 10.647 11.1138 10.6957 10.9274C10.73 10.7976 10.7602 10.6664 10.7794 10.5522C10.7983 10.4404 10.8037 10.3232 10.8066 10.2088C10.8102 10.0716 10.8102 9.94125 10.8268 9.82895C10.8301 9.80629 10.8457 9.77819 10.8647 9.74263C10.8782 9.71744 10.8934 9.68832 10.9073 9.65504C10.9096 9.51178 10.9086 9.36644 10.9041 9.22286C10.9021 9.21794 10.9 9.21286 10.8978 9.20778C10.8978 9.2077 10.8977 9.20762 10.8977 9.20754C10.8487 9.09257 10.7838 8.93877 10.7962 8.71044C10.7991 8.65194 10.8108 8.61355 10.8211 8.57881C10.8311 8.54471 10.8399 8.51409 10.8368 8.472C10.8332 8.42425 10.8166 8.37 10.7979 8.31065C10.7715 8.2275 10.7413 8.13616 10.7355 8.0391C10.7351 8.03248 10.7347 8.02532 10.7342 8.01778C10.7293 7.94642 10.7206 7.84138 10.7214 7.73374C10.6536 7.43244 10.566 7.13671 10.4542 6.84904C10.2681 6.37059 10.015 5.91554 9.67883 5.52805C9.51501 5.33823 9.35077 5.16245 9.22653 5.02621C9.10243 4.88951 9.03312 4.80013 9.05705 4.75773C9.08031 4.71648 9.19781 4.72398 9.38369 4.79845C9.5685 4.87248 9.80165 5.01381 10.01 5.20429C10.3486 5.51244 10.6367 5.8734 10.8775 6.2612C10.891 6.28124 10.9043 6.30151 10.9174 6.32185C11.0137 6.47126 11.1075 6.61102 11.197 6.75292C11.2175 6.78542 11.2378 6.81828 11.2578 6.85155Z" fill="black"/>
<path d="M5.6246 14.0888C5.81849 14.1134 6.15079 14.2458 6.33722 14.3146C6.34055 14.3158 6.34389 14.317 6.34722 14.3182C6.39026 14.3342 6.43198 14.3475 6.48132 14.3628C6.60081 14.3994 6.75632 14.4479 7.08498 14.5639C7.18233 14.5855 7.28107 14.6067 7.38123 14.6276C8.44584 14.8482 9.51852 14.9616 10.6195 14.9774C10.6336 14.9763 10.6479 14.9751 10.6624 14.9739C10.9315 14.9516 11.2806 14.91 11.4907 14.914C11.7662 14.919 11.9575 14.9262 12.1112 14.9334C12.9929 14.8688 13.8802 14.7336 14.7533 14.5149C14.9297 14.4708 15.1084 14.4224 15.2893 14.3694C15.3826 14.3422 15.474 14.3145 15.5671 14.2851C15.8115 14.2082 16.0703 14.1197 16.3066 14.0329C16.4426 13.9672 16.5719 13.8991 16.6926 13.8348C16.8659 13.7433 17.0065 13.6654 17.1328 13.6095C17.4353 13.476 17.8042 13.3627 18.068 13.2785C18.1117 13.2645 18.1532 13.2511 18.1916 13.2385C18.3942 13.1435 18.6026 13.0431 18.7971 12.9472C18.8133 12.9472 18.8297 12.9474 18.8465 12.9476C19.0544 12.9508 19.2748 12.8523 19.612 12.6968C19.7558 12.6305 19.9237 12.5523 20.1272 12.4629C20.2583 12.4053 20.3399 12.4014 20.4064 12.3979C20.426 12.3968 20.4444 12.3958 20.4623 12.3934C20.4839 12.3906 20.5037 12.383 20.5225 12.3721C20.8014 12.2123 21.215 12.4825 21.1071 12.8577C21.104 12.8876 21.1038 12.9199 21.1032 12.9546C21.1018 13.0576 21.0971 13.1821 21.0068 13.3163C20.7194 13.7384 20.6846 13.9525 20.6552 14.1245C20.6464 14.1743 20.6379 14.2192 20.6231 14.2621C20.5749 14.4021 20.4472 14.5701 20.3359 14.6866C20.2487 14.7787 20.1367 14.9985 20.053 15.1691C20.0218 15.2335 19.966 15.3111 19.8979 15.402C19.828 15.4951 19.7447 15.6028 19.6638 15.7214C19.4563 16.0229 19.334 16.1718 19.235 16.2941C19.2068 16.3286 19.1808 16.3598 19.1541 16.3916C19.0693 16.4927 18.9597 16.6121 18.8458 16.7293C18.708 16.8713 18.5647 17.0089 18.4558 17.1149C18.1443 17.3606 17.8218 17.5879 17.479 17.7938C17.3027 17.8992 17.1093 17.9709 16.9472 17.9923C16.7892 18.015 16.6535 17.9782 16.6534 17.909C16.6477 17.8448 16.6874 17.7734 16.7688 17.663C16.8514 17.5542 16.9727 17.4203 17.1108 17.2957C17.3899 17.0442 17.6493 16.7666 17.8959 16.4779C18.1935 16.1283 18.4705 15.7613 18.7323 15.3886C18.915 15.1283 19.0879 14.8631 19.2498 14.5932C19.2665 14.5654 19.2834 14.5371 19.2997 14.5094C19.4029 14.2623 19.4922 14.0135 19.5582 13.8426C19.613 13.7013 19.6717 13.6091 19.7221 13.529C19.7565 13.4742 19.7867 13.4251 19.8063 13.3705C19.8169 13.3412 19.8301 13.3007 19.8454 13.2521C19.9002 13.0796 19.9767 12.8034 20.0654 12.5389C19.8849 13.1329 20.5431 13.601 21.0165 13.3355C20.9837 13.3508 20.951 13.3656 20.9183 13.3795C20.7701 13.443 20.593 13.5023 20.4252 13.5555C20.1842 13.6324 19.9673 13.6944 19.8619 13.7619C19.684 13.8773 19.4622 13.9642 19.2684 14.0367C19.0857 14.1051 18.9178 14.1658 18.8371 14.2331C18.741 14.3134 18.6425 14.3433 18.4975 14.3853C18.3965 14.4146 18.2755 14.4488 18.1137 14.5099C17.9211 14.5827 17.7799 14.6146 17.6604 14.6409C17.4916 14.678 17.3698 14.7026 17.2055 14.8082C17.0185 14.9271 16.8186 15.0307 16.6508 15.0753C16.5739 15.0959 16.4919 15.1263 16.4018 15.1589C16.2808 15.2027 16.1544 15.2473 16.0345 15.2694C15.9356 15.2876 15.8476 15.2799 15.7703 15.2726C15.7462 15.2704 15.7231 15.2682 15.701 15.2668C15.6584 15.2803 15.6171 15.2932 15.5735 15.3069C15.5405 15.3172 15.5075 15.3275 15.4747 15.3377C15.4638 15.3467 15.4524 15.3564 15.4405 15.3664C15.3807 15.4167 15.3071 15.4782 15.2086 15.526C15.0513 15.6018 14.9095 15.6203 14.7469 15.6417C14.6214 15.6579 14.4923 15.6734 14.3516 15.7127C14.2551 15.7397 14.1515 15.7775 14.0427 15.8153C13.8792 15.8718 13.7194 15.9242 13.6042 15.9335C13.561 15.9371 13.5207 15.9234 13.4811 15.9096C13.4809 15.9095 13.4807 15.9094 13.4806 15.9093C13.4779 15.9084 13.4752 15.9075 13.4725 15.9066C13.2021 15.9733 12.9184 16.0369 12.6481 16.0915C12.624 16.1001 12.5997 16.1086 12.5757 16.1169C12.4581 16.1574 12.3449 16.1948 12.2735 16.2368C12.1955 16.2826 11.9953 16.3245 11.7721 16.3629C11.6281 16.3879 11.4813 16.4109 11.3626 16.4356C11.29 16.4503 11.2196 16.4323 11.1481 16.4135C11.0813 16.3958 11.0135 16.3774 10.9412 16.3833C10.9049 16.3862 10.8661 16.3949 10.8248 16.4039C10.788 16.4118 10.7514 16.42 10.7086 16.4248C10.6695 16.4293 10.5821 16.4179 10.4723 16.4018C10.4044 16.3919 10.3279 16.3802 10.2486 16.3693C10.0396 16.3734 9.81767 16.3709 9.60967 16.3622C9.56582 16.3747 9.52436 16.3922 9.49158 16.4163C9.46796 16.4336 9.44737 16.455 9.42616 16.4767C9.39731 16.5062 9.36733 16.5365 9.3274 16.5585C9.29619 16.5756 9.26064 16.5793 9.23808 16.5675C9.22756 16.5621 9.21989 16.5534 9.21294 16.5455C9.20498 16.5366 9.1979 16.5286 9.1885 16.5275C9.18173 16.5267 9.17421 16.5313 9.16496 16.5368C9.15021 16.5455 9.13097 16.5567 9.10369 16.5532C9.00414 16.5404 8.88402 16.5171 8.7708 16.4929C8.64387 16.4659 8.52535 16.4381 8.42589 16.4216C8.31351 16.4031 8.15983 16.3491 8.01135 16.2928C7.90701 16.2536 7.79856 16.212 7.70871 16.1818C7.61923 16.152 7.52849 16.1363 7.43329 16.1178C7.32083 16.0961 7.21451 16.0732 7.1321 16.0289C7.11544 16.0199 7.0988 15.994 7.07824 15.9617C7.06395 15.9389 7.04632 15.9126 7.02544 15.8867C6.91359 15.8485 6.80436 15.8082 6.69776 15.7662C6.69324 15.7671 6.68859 15.7681 6.68391 15.7691C6.68383 15.7691 6.68375 15.7691 6.68367 15.7692C6.57846 15.7918 6.4259 15.8146 6.27457 15.6979C6.2361 15.6684 6.21709 15.6365 6.19872 15.6076C6.18103 15.5793 6.16539 15.5541 6.13542 15.5369C6.10139 15.5174 6.05584 15.5094 6.00663 15.5C5.93688 15.4867 5.8634 15.4719 5.79747 15.4202C5.79308 15.4167 5.78837 15.4129 5.78346 15.4091C5.73687 15.3724 5.6689 15.3179 5.6105 15.2478C5.39616 15.1278 5.18765 15.0007 4.98282 14.8677C4.64205 14.6464 4.31648 14.4105 3.99929 14.171C3.8467 14.0553 3.71321 13.9189 3.6294 13.8006C3.54318 13.6802 3.51549 13.5894 3.549 13.5348C3.583 13.4804 3.67757 13.4645 3.82444 13.4874C3.96844 13.509 4.14907 13.5657 4.31914 13.6428C4.59811 13.7701 4.88235 13.8907 5.16232 13.9967C5.17769 14.0014 5.19315 14.0061 5.20854 14.0109C5.32547 14.0479 5.43196 14.0628 5.54619 14.0785C5.57219 14.082 5.59835 14.0854 5.6246 14.0888Z" fill="black"/>
<path d="M5.82644 17.2346C5.92625 17.1218 6.16913 17.0073 6.30429 16.9514C6.30673 16.9503 6.30919 16.9492 6.31164 16.9482C6.34349 16.9347 6.37319 16.9202 6.40836 16.9033C6.4923 16.8635 6.60517 16.8072 6.85318 16.7341C6.92294 16.7013 6.9912 16.6704 7.06128 16.6405C7.81702 16.3166 8.63228 16.1226 9.46552 16.0643C9.47587 16.0623 9.48641 16.0602 9.49706 16.0581C9.70309 16.0174 9.96296 15.9768 10.1281 15.9911C10.3386 16.0089 10.4804 16.0367 10.5969 16.0622C11.1407 16.0975 11.6815 16.1834 12.2123 16.3105C12.3257 16.3379 12.4371 16.3645 12.5466 16.3902C12.6715 16.4193 12.7975 16.4479 12.9193 16.4745C12.9867 16.4892 13.0536 16.5035 13.1197 16.5173C13.2921 16.5532 13.4718 16.5891 13.6467 16.6225C13.7537 16.6278 13.8518 16.6281 13.9465 16.6295C14.0802 16.6315 14.1921 16.6324 14.2884 16.6466C14.5137 16.6792 14.7558 16.7666 14.9377 16.8306C14.967 16.8411 14.9946 16.8508 15.02 16.8596C15.1701 16.8829 15.3165 16.9044 15.4646 16.9253C15.4731 16.9337 15.4816 16.9424 15.4902 16.9513C15.5981 17.0621 15.7522 17.0933 15.9916 17.1378C16.0962 17.157 16.2159 17.1784 16.3577 17.2079C16.4487 17.2267 16.4912 17.2652 16.5273 17.2965C16.5378 17.3057 16.5477 17.3143 16.5579 17.3215C16.5928 17.3462 16.6342 17.3305 16.6823 17.312C16.7448 17.2879 16.8191 17.2597 16.9102 17.3046C17.2032 17.4454 17.3424 17.3765 17.4416 17.331C17.471 17.3173 17.4974 17.3049 17.5244 17.2987C17.6123 17.2787 17.7361 17.3087 17.833 17.3424C17.9093 17.3697 18.0601 17.3433 18.171 17.3096C18.213 17.297 18.2713 17.2954 18.3408 17.2923C18.4114 17.2894 18.4935 17.285 18.5813 17.2669C18.7988 17.2216 18.9157 17.1959 19.0091 17.1757C19.0358 17.1699 19.0609 17.1645 19.0861 17.1588C19.1636 17.1414 19.2606 17.1232 19.3617 17.1031C19.4777 17.0803 19.6023 17.0542 19.6914 17.0304C19.9358 17.0079 20.1879 16.9774 20.4319 16.9413C20.5614 16.9217 20.6895 16.9289 20.7948 16.9548C20.8999 16.9812 20.9711 17.0247 20.9925 17.0864C21.014 17.1481 20.9846 17.2258 20.9146 17.3096C20.8443 17.3931 20.7411 17.4745 20.618 17.5321C20.3786 17.645 20.126 17.7573 19.8752 17.8577C19.5655 17.9811 19.2482 18.0899 18.9203 18.1685C18.6919 18.2233 18.4571 18.2666 18.2213 18.2961C18.1972 18.2991 18.173 18.302 18.1483 18.3048C17.9518 18.3644 17.7518 18.415 17.6098 18.4369C17.492 18.455 17.407 18.4413 17.3338 18.4284C17.2835 18.4196 17.2394 18.4111 17.1944 18.4137C17.1702 18.4151 17.1372 18.418 17.0972 18.4211C16.9345 18.4342 16.6556 18.4497 16.4112 18.3975C16.3026 18.3746 16.1794 18.3324 16.0638 18.2893C15.8982 18.228 15.748 18.1652 15.666 18.1675C15.5229 18.1718 15.3653 18.1287 15.2309 18.089C15.1003 18.0509 14.9888 18.0162 14.9176 18.032C14.8322 18.0507 14.7682 18.0257 14.6739 17.9879C14.6083 17.9616 14.5266 17.9288 14.4157 17.9004C14.2857 17.8673 14.1985 17.8257 14.1247 17.7903C14.0197 17.7401 13.9417 17.7021 13.8105 17.7161C13.662 17.731 13.517 17.7305 13.4057 17.6934C13.3544 17.6763 13.2976 17.6663 13.2365 17.6555C13.1565 17.6413 13.0685 17.6256 12.996 17.5943C12.9359 17.5686 12.8903 17.5246 12.8496 17.4857C12.8369 17.4736 12.8247 17.4619 12.8126 17.4515C12.7833 17.4457 12.7537 17.44 12.7242 17.4345C12.7029 17.4304 12.6815 17.4265 12.66 17.4225C12.6508 17.4263 12.641 17.4304 12.6309 17.4348C12.5799 17.4564 12.5171 17.4828 12.444 17.4876C12.3262 17.4947 12.2398 17.4581 12.1417 17.4181C12.1 17.401 12.0571 17.3836 12.0107 17.3691C11.9757 17.3579 11.9387 17.349 11.8986 17.3444C11.8377 17.3374 11.7673 17.3394 11.6972 17.3424C11.593 17.3467 11.4917 17.3533 11.4233 17.3326C11.3977 17.3248 11.3773 17.3014 11.3568 17.2783C11.3568 17.2782 11.3567 17.278 11.3566 17.2779C11.3552 17.2763 11.3538 17.2748 11.3524 17.2732C11.1801 17.2707 11.0074 17.2751 10.8352 17.2851C10.8201 17.2897 10.805 17.2942 10.79 17.2987C10.7166 17.3206 10.6464 17.3427 10.6005 17.3757C10.5507 17.4115 10.4274 17.4302 10.2971 17.453C10.2117 17.4679 10.1246 17.4842 10.0533 17.506C10.0118 17.5186 9.97025 17.4995 9.92714 17.4803C9.88688 17.4624 9.84564 17.4444 9.80216 17.4515C9.78048 17.4551 9.75764 17.4646 9.73338 17.4749C9.71202 17.4839 9.68951 17.4934 9.66561 17.4999C9.64328 17.506 9.59211 17.4983 9.52477 17.4897C9.48334 17.4844 9.43621 17.4788 9.38702 17.4754C9.26184 17.4987 9.13553 17.5235 9.01028 17.5488C8.9865 17.5683 8.96725 17.5921 8.95403 17.6212C8.94455 17.6421 8.93776 17.6665 8.93084 17.6913C8.92143 17.7251 8.9118 17.7599 8.89505 17.7885C8.88196 17.8109 8.86354 17.8211 8.84842 17.8141C8.84136 17.8109 8.83511 17.804 8.82932 17.7978C8.82272 17.7906 8.81682 17.7843 8.81133 17.7852C8.80738 17.7858 8.80432 17.7917 8.80056 17.7989C8.79454 17.8103 8.78673 17.8251 8.77078 17.8274C8.71138 17.8361 8.64301 17.84 8.5758 17.8445C8.50033 17.8496 8.42689 17.8554 8.37042 17.8675C8.30731 17.881 8.20916 17.8763 8.11238 17.8732C8.04477 17.871 7.97542 17.8703 7.91865 17.8753C7.86294 17.8803 7.8091 17.9009 7.75648 17.921C7.6934 17.9452 7.63439 17.9678 7.57534 17.964C7.56338 17.9633 7.54395 17.9477 7.51959 17.9285C7.50232 17.915 7.48249 17.8996 7.4612 17.8862C7.39219 17.9017 7.32394 17.9166 7.25376 17.932C7.25213 17.935 7.25043 17.938 7.24875 17.941C7.24873 17.9411 7.24871 17.9412 7.24869 17.9412C7.21054 18.0107 7.16069 18.1005 7.03552 18.0829C7.00395 18.0784 6.97936 18.0626 6.95722 18.0485C6.93549 18.0346 6.91607 18.0224 6.895 18.0243C6.87078 18.0265 6.84719 18.0446 6.82204 18.0638C6.78663 18.0909 6.74751 18.1204 6.69564 18.1161C6.69207 18.1158 6.68835 18.1155 6.68422 18.1152C6.64564 18.1129 6.58891 18.1097 6.5265 18.0906C6.37742 18.1242 6.22571 18.1602 6.0771 18.1975C5.82706 18.2608 5.57893 18.3304 5.33239 18.413C5.21508 18.4514 5.08725 18.4697 4.98308 18.4643C4.87786 18.459 4.80398 18.4306 4.77161 18.3752C4.73831 18.3205 4.7486 18.2402 4.80109 18.1434C4.85269 18.0476 4.94322 17.9441 5.04758 17.865C5.22136 17.7346 5.39735 17.6075 5.57766 17.4838C5.58651 17.4764 5.59548 17.4689 5.6045 17.4616C5.67243 17.407 5.72893 17.3438 5.78622 17.2793C5.79947 17.2645 5.81284 17.2495 5.82644 17.2346Z" fill="black"/>
<path d="M9.67338 14.8835C9.75207 14.7969 9.80276 14.6126 9.82437 14.5097C9.82481 14.5078 9.82525 14.5059 9.82568 14.504C9.83108 14.4795 9.83778 14.4566 9.84556 14.4296C9.86363 14.365 9.88953 14.2818 9.90479 14.0948C9.91992 14.0415 9.93361 13.9906 9.94633 13.9379C10.0318 13.5842 10.0739 13.2266 10.0831 12.8651C10.0888 12.6426 10.0877 12.4219 10.0825 12.1995C10.0833 12.1923 10.0842 12.1849 10.0851 12.1775C10.1019 12.034 10.1207 11.8525 10.106 11.7393C10.0874 11.5944 10.0674 11.4936 10.0497 11.4135C10.0245 10.9519 9.99333 10.494 9.97494 10.0367C9.96914 9.89265 9.96456 9.75039 9.96155 9.60688C9.95876 9.47433 9.9567 9.34343 9.95501 9.21129C9.96364 9.1343 9.97401 9.06059 9.98322 8.99293C9.99617 8.89757 10.0067 8.8123 10.0075 8.74199C10.0094 8.57244 9.97693 8.38262 9.95226 8.24089C9.94823 8.21784 9.9444 8.19614 9.94097 8.17603C9.93855 8.06331 9.93562 7.9503 9.93182 7.83711C9.92716 7.82984 9.92233 7.82248 9.91739 7.81507C9.85575 7.7226 9.84589 7.60509 9.82674 7.41954C9.81842 7.33894 9.80832 7.24567 9.79159 7.13608C9.78077 7.06547 9.75704 7.03083 9.73789 7.00256C9.73225 6.99425 9.72699 6.98646 9.72254 6.97852C9.7073 6.95129 9.71646 6.92025 9.72686 6.88351C9.74044 6.83586 9.75587 6.77853 9.72529 6.70801C9.62873 6.48338 9.65791 6.3777 9.67719 6.29683C9.68296 6.27316 9.68802 6.2517 9.68923 6.23019C9.69313 6.1604 9.66174 6.06563 9.62962 5.9953C9.60421 5.93953 9.59971 5.82194 9.60203 5.73169C9.60296 5.69758 9.5946 5.6528 9.58453 5.60011C9.57409 5.54558 9.56186 5.48255 9.55561 5.41403C9.53955 5.24091 9.52744 5.1493 9.5179 5.07567C9.51513 5.05468 9.51246 5.03515 9.50982 5.01563C9.50149 4.95394 9.48815 4.87789 9.47385 4.80099C9.45677 4.70895 9.43832 4.61579 9.42662 4.54447C9.37064 4.36444 9.31142 4.18551 9.25103 4.00741C9.21988 3.91586 9.17105 3.83246 9.11795 3.77535C9.06462 3.71828 9.01175 3.69198 8.96677 3.70262C8.92176 3.71326 8.88683 3.76023 8.86453 3.8339C8.84247 3.90755 8.83497 4.00188 8.84548 4.09603C8.86691 4.28553 8.88459 4.47544 8.90098 4.66503C8.921 4.89598 8.9391 5.12665 8.96178 5.35613C8.97766 5.51669 8.99391 5.67701 9.01067 5.83717C9.01239 5.85367 9.01414 5.87016 9.01588 5.88665C9.00788 6.02433 8.99888 6.16122 8.99827 6.25688C8.99776 6.33591 9.01206 6.39168 9.0246 6.43949C9.03319 6.47239 9.04087 6.50151 9.04171 6.53175C9.04216 6.54798 9.04215 6.57024 9.04207 6.59706C9.04199 6.70665 9.03948 6.8928 9.06871 7.05921C9.08179 7.13328 9.10506 7.21861 9.1276 7.30014C9.15976 7.41662 9.19046 7.5258 9.18459 7.58252C9.17421 7.68207 9.18981 7.79376 9.20376 7.89288C9.21702 7.98759 9.22858 8.0704 9.21256 8.11863C9.19338 8.17628 9.20261 8.22376 9.21654 8.29494C9.22618 8.34439 9.23803 8.4051 9.24365 8.48794C9.25009 8.58362 9.26577 8.65045 9.27925 8.70794C9.29813 8.78875 9.31264 8.84968 9.28784 8.94134C9.26024 9.04295 9.24168 9.14896 9.25025 9.23212C9.25417 9.26998 9.25288 9.31333 9.25141 9.35835C9.24949 9.41804 9.24726 9.48027 9.25695 9.53794C9.26493 9.58528 9.28649 9.62433 9.30565 9.65893C9.31163 9.66972 9.31734 9.68009 9.32235 9.69012C9.32153 9.72782 9.32052 9.76547 9.3192 9.80306C9.31549 9.80914 9.31139 9.81552 9.30715 9.82218C9.28587 9.85554 9.25958 9.89659 9.2456 9.94775C9.22346 10.0286 9.23396 10.0995 9.24518 10.1743C9.25388 10.2325 9.26298 10.2931 9.25657 10.3629C9.2522 10.4103 9.2408 10.464 9.22932 10.5171C9.21229 10.596 9.19505 10.6731 9.20122 10.7283C9.20353 10.7489 9.21728 10.7669 9.23098 10.7848C9.23107 10.7849 9.23115 10.785 9.23124 10.7851C9.23217 10.7863 9.23308 10.7875 9.234 10.7887C9.21661 10.9213 9.19731 11.0519 9.1764 11.1845C9.17193 11.1958 9.1675 11.2072 9.16313 11.2185C9.14175 11.2737 9.12077 11.327 9.09355 11.3609C9.06408 11.3973 9.04183 11.4936 9.01779 11.5941C9.00206 11.6599 8.98561 11.7275 8.96617 11.7821C8.95479 11.8141 8.96766 11.8466 8.98095 11.8798C8.99334 11.9108 9.00605 11.9427 8.99953 11.9759C8.99626 11.9925 8.98838 12.0102 8.97993 12.0289C8.9725 12.0454 8.96461 12.0628 8.9591 12.0812C8.95398 12.0985 8.9591 12.1373 8.96534 12.1886C8.9692 12.2202 8.97352 12.2561 8.97631 12.2935C8.95779 12.3905 8.93952 12.4849 8.92124 12.5823C8.90569 12.6014 8.88636 12.6173 8.86241 12.629C8.84522 12.6374 8.82503 12.6439 8.80437 12.6507C8.77627 12.6598 8.74722 12.6692 8.72333 12.6838C8.70467 12.6952 8.69617 12.7099 8.70229 12.7211C8.70257 12.7216 8.70288 12.7221 8.70322 12.7226C8.70631 12.7271 8.71162 12.731 8.71646 12.7346C8.72261 12.7391 8.72808 12.7432 8.72748 12.7473C8.72704 12.7504 8.72209 12.753 8.71608 12.7563C8.70649 12.7616 8.69412 12.7684 8.69249 12.7806C8.68647 12.8258 8.68526 12.8783 8.68434 12.9302C8.68332 12.9877 8.68266 13.0436 8.67581 13.0873C8.66811 13.1363 8.68007 13.2081 8.69192 13.282C8.70024 13.3332 8.70857 13.3843 8.71067 13.4274C8.7127 13.4697 8.70108 13.5115 8.69008 13.5523C8.67674 13.602 8.66454 13.6495 8.6768 13.6929C8.67929 13.7017 8.69618 13.7146 8.71716 13.7307C8.73203 13.7421 8.74896 13.7552 8.76436 13.7696C8.76147 13.8225 8.75974 13.8739 8.75833 13.928C8.75598 13.9296 8.75358 13.9312 8.75113 13.9328C8.75108 13.9328 8.75102 13.9328 8.75097 13.9328C8.69545 13.9688 8.62327 14.0177 8.66384 14.1076C8.67404 14.1304 8.69318 14.1468 8.71026 14.1615C8.72704 14.176 8.7419 14.189 8.74456 14.2048C8.74761 14.2226 8.73637 14.2425 8.72458 14.2635C8.70792 14.2931 8.69023 14.3262 8.70542 14.3647C8.70645 14.3673 8.70758 14.3701 8.70871 14.3731C8.71939 14.4009 8.73518 14.4421 8.76635 14.4857C8.77135 14.5995 8.77679 14.718 8.78293 14.8322C8.7924 15.0268 8.80171 15.2204 8.8054 15.4146C8.80794 15.507 8.82869 15.6059 8.8581 15.6788C8.88794 15.7525 8.92278 15.798 8.96676 15.8085C9.01072 15.8189 9.06375 15.7943 9.12543 15.7407C9.18637 15.6878 9.25109 15.6059 9.29512 15.5211C9.36714 15.3799 9.43899 15.2364 9.50817 15.0921C9.51276 15.0847 9.51733 15.0772 9.52178 15.0698C9.555 15.0135 9.59804 14.966 9.64264 14.9172C9.65287 14.906 9.66317 14.8948 9.67338 14.8835Z" fill="black"/>
</svg>
